<?xml version="1.0" encoding="UTF-8"?>
<!-- Generator: Adobe Illustrator 15.0.2, SVG Export Plug-In . SVG Version: 6.00 Build 0)  -->
<!DOCTYPE svg PUBLIC "-//W3C//DTD SVG 1.1//EN" "http://www.w3.org/Graphics/SVG/1.1/DTD/svg11.dtd">
<svg xmlns="http://www.w3.org/2000/svg" xmlns:xlink="http://www.w3.org/1999/xlink" version="1.1" id="Layer_1" x="0px" y="0px" width="512px" height="566.91px" viewBox="0 0 512 566.91" enable-background="new 0 0 512 566.91" xml:space="preserve">
<g>
	<path d="M442.407,92.225L442.407,92.225l0.264-0.259l-0.048-0.048c3.22-3.509,3.185-8.928-0.204-12.325l0,0l-12.628-12.628l0,0l0,0   c-3.4-3.392-8.819-3.422-12.328-0.204l-0.048-0.055l-54.394,54.4c-3.497,3.481-3.497,9.144,0,12.631l0,0l12.628,12.634l0,0   c3.496,3.491,9.144,3.491,12.628,0L442.407,92.225L442.407,92.225z" fill="#000000"/>
	<path d="M247.063,94.432v0.007h17.861v-0.007c4.806,0,8.705-3.806,8.891-8.569h0.036V8.945c0-4.932-3.995-8.933-8.927-8.933V0   h-17.861v0.006c-4.933,0-8.931,4.001-8.931,8.934v76.923h0.036C238.364,90.626,242.254,94.432,247.063,94.432z" fill="#000000"/>
	<path d="M512,221.918c0-4.817-3.809-8.705-8.567-8.897v-0.035h-76.935c-4.926,0-8.927,3.991-8.927,8.933l0,0v17.858l0,0   c0,4.941,4.001,8.939,8.927,8.939h76.935v-0.036c4.759-0.198,8.567-4.092,8.567-8.903l0,0V221.918L512,221.918z" fill="#000000"/>
	<path d="M255.997,124.744c-72.32,0-130.944,58.62-130.944,130.94c0,28.348,9.1,54.517,24.413,75.952h-0.052   c19.528,30.465,31.727,70.819,32.625,115.275c1.568,2.584,4.374,4.326,7.609,4.326c0.345,0,0.673-0.061,1.003-0.103v0.103h130.244   v-0.103c0.336,0.042,0.66,0.103,0.997,0.103c3.544,0,6.572-2.066,8.026-5.053c1.069-46.655,14.587-88.764,35.938-119.583   c13.253-20.45,21.087-44.728,21.087-70.912C386.943,183.364,328.32,124.744,255.997,124.744z" fill="#000000"/>
	<path d="M321.893,528.227c-0.337,0-0.661,0.061-0.997,0.103v-0.103H190.651v0.103c-0.33-0.036-0.658-0.103-1.003-0.103   c-4.927,0-8.931,3.995-8.931,8.934v20.816c0,4.933,3.998,8.934,8.931,8.934c0.345,0,0.673-0.06,1.003-0.107v0.107h130.244v-0.096   c0.336,0.036,0.66,0.096,0.997,0.096c4.938,0,8.939-4.001,8.939-8.934V537.16C330.832,532.222,326.831,528.227,321.893,528.227z" fill="#000000"/>
	<path d="M321.893,470.15c-0.337,0-0.661,0.061-0.997,0.108v-0.108H190.651v0.108c-0.33-0.036-0.658-0.108-1.003-0.108   c-4.821,0-8.735,3.845-8.9,8.633c-0.013,0.114-0.019,0.234-0.03,0.354V499.9c0,4.938,3.998,8.934,8.931,8.934   c0.345,0,0.673-0.061,1.003-0.103v0.103h130.244v-0.096c0.336,0.035,0.66,0.102,0.997,0.102c4.938,0,8.939-4.001,8.939-8.928   v-20.828C330.832,474.146,326.831,470.15,321.893,470.15z" fill="#000000"/>
	<path d="M85.862,219.999v-0.036H8.931c-4.933,0-8.931,3.998-8.931,8.925v17.866c0,4.927,3.998,8.925,8.931,8.925h76.932v-0.03   c4.755-0.195,8.566-4.091,8.566-8.889l0,0v-17.872l0,0C94.423,224.09,90.617,220.194,85.862,219.999z" fill="#000000"/>
	<path d="M72.666,89.148l54.394,54.399l0.055-0.054c3.502,3.217,8.921,3.192,12.315-0.204h0.009l12.628-12.635l0,0   c3.397-3.397,3.422-8.822,0.205-12.321l0.054-0.058L97.926,63.883c-3.484-3.481-9.144-3.481-12.632,0l0,0l0,0L72.666,76.511l0,0   C69.176,80.008,69.176,85.661,72.666,89.148z" fill="#000000"/>
</g>
</svg>
