<?xml version="1.0" encoding="UTF-8" standalone="no"?>
<!-- Created with Inkscape (http://www.inkscape.org/) -->

<svg
   xmlns:dc="http://purl.org/dc/elements/1.1/"
   xmlns:cc="http://creativecommons.org/ns#"
   xmlns:rdf="http://www.w3.org/1999/02/22-rdf-syntax-ns#"
   xmlns:svg="http://www.w3.org/2000/svg"
   xmlns="http://www.w3.org/2000/svg"
   xmlns:xlink="http://www.w3.org/1999/xlink"
   xmlns:sodipodi="http://sodipodi.sourceforge.net/DTD/sodipodi-0.dtd"
   xmlns:inkscape="http://www.inkscape.org/namespaces/inkscape"
   width="297mm"
   height="210mm"
   id="svg6179"
   version="1.1"
   inkscape:version="0.48.3.1 r9886"
   sodipodi:docname="combineCritUncritical2.svg">
  <defs
     id="defs6181">
    <linearGradient
       y2="0.492072"
       y1="0.404862"
       xlink:href="#linearGradient4728"
       x2="0.54696"
       x1="0.384734"
       id="linearGradient1722" />
    <linearGradient
       y2="Infinity"
       y1="-Infinity"
       xlink:href="#linearGradient4140"
       x2="0.498228"
       x1="0.498228"
       id="linearGradient1721" />
    <linearGradient
       y2="Infinity"
       y1="-Infinity"
       xlink:href="#linearGradient4140"
       x2="0.494024"
       x1="0.49004"
       id="linearGradient1720" />
    <linearGradient
       y2="0.882813"
       y1="0.039062"
       xlink:href="#linearGradient4830"
       x2="0.92437"
       x1="-0.042017"
       id="linearGradient1719" />
    <radialGradient
       xlink:href="#linearGradient1709"
       r="26.079197"
       id="radialGradient1718"
       gradientUnits="userSpaceOnUse"
       fy="36.314224"
       fx="42.015064"
       cy="36.04406"
       cx="41.217018" />
    <radialGradient
       xlink:href="#linearGradient1709"
       r="26.079197"
       id="radialGradient1712"
       gradientUnits="userSpaceOnUse"
       fy="36.314224"
       fx="42.015064"
       cy="36.04406"
       cx="41.217018" />
    <linearGradient
       y2="37.406559"
       y1="33.980247"
       xlink:href="#linearGradient4728"
       x2="46.952221"
       x1="40.586456"
       id="linearGradient4731"
       gradientUnits="userSpaceOnUse"
       gradientTransform="scale(0.960882,1.040710)" />
    <linearGradient
       y2="53.925991"
       y1="20.796894"
       xlink:href="#linearGradient4830"
       x2="62.643452"
       x1="24.699118"
       id="linearGradient4842"
       gradientUnits="userSpaceOnUse"
       gradientTransform="scale(0.960291,1.041351)" />
    <linearGradient
       id="linearGradient4830">
      <stop
         stop-color="#000000"
         offset="0"
         id="stop4831" />
      <stop
         stop-color="#000000"
         stop-opacity="0"
         offset="1"
         id="stop4832" />
    </linearGradient>
    <linearGradient
       y2="45.81908"
       y1="32.828346"
       xlink:href="#linearGradient4140"
       x2="33.770935"
       x1="33.713825"
       id="linearGradient4843"
       gradientUnits="userSpaceOnUse"
       gradientTransform="scale(1.395076,0.716807)" />
    <linearGradient
       id="linearGradient4140">
      <stop
         stop-color="#ffffff"
         offset="0"
         id="stop4141" />
      <stop
         stop-color="#fffcfc"
         stop-opacity="0"
         offset="1"
         id="stop4142" />
    </linearGradient>
    <linearGradient
       y2="47.052849"
       y1="32.14064"
       xlink:href="#linearGradient4140"
       x2="33.8312"
       x1="33.8312"
       id="linearGradient4844"
       gradientUnits="userSpaceOnUse"
       gradientTransform="scale(1.395076,0.716807)" />
    <linearGradient
       id="linearGradient4728">
      <stop
         stop-color="#eefb11"
         offset="0"
         id="stop4729" />
      <stop
         stop-color="#fbcd11"
         offset="1"
         id="stop4730" />
    </linearGradient>
    <linearGradient
       id="linearGradient1709">
      <stop
         stop-color="#ffcd00"
         offset="0"
         id="stop1710" />
      <stop
         stop-color="#ff0000"
         offset="1"
         id="stop1711" />
    </linearGradient>
  </defs>
  <sodipodi:namedview
     inkscape:document-units="mm"
     pagecolor="#ffffff"
     bordercolor="#666666"
     borderopacity="1.0"
     inkscape:pageopacity="0.0"
     inkscape:pageshadow="2"
     inkscape:zoom="0.525169"
     inkscape:cx="530.19657"
     inkscape:cy="340.018"
     inkscape:current-layer="layer1"
     id="namedview6183"
     showgrid="true"
     inkscape:window-width="1364"
     inkscape:window-height="749"
     inkscape:window-x="0"
     inkscape:window-y="17"
     inkscape:window-maximized="0">
    <inkscape:grid
       type="xygrid"
       id="grid7175" />
  </sodipodi:namedview>
  <metadata
     id="metadata6185">
    <rdf:RDF>
      <cc:Work
         rdf:about="">
        <dc:format>image/svg+xml</dc:format>
        <dc:type
           rdf:resource="http://purl.org/dc/dcmitype/StillImage" />
        <dc:title></dc:title>
      </cc:Work>
    </rdf:RDF>
  </metadata>
  <g
     inkscape:label="Layer 1"
     inkscape:groupmode="layer"
     id="layer1">
    <rect
       style="opacity:0.80686693;color:#000000;fill:#191000;fill-opacity:0.4424779;fill-rule:nonzero;stroke:none;marker:none;visibility:visible;display:inline;overflow:visible;enable-background:accumulate"
       id="rect6640"
       width="394"
       height="202.69102"
       x="357.315"
       y="518.00098"
       ry="39.156223"
       inkscape:export-filename="/home/hglanzer/ownCloud/Diplomarbeit/knxSec/Praesentation/graphImports/combineCritUncritical2.svg.png"
       inkscape:export-xdpi="90"
       inkscape:export-ydpi="90" />
    <path
       sodipodi:type="arc"
       style="opacity:0.80686693;fill:#ff1000;fill-opacity:0.85882353;stroke:none;display:inline"
       id="path6023"
       sodipodi:cx="-750"
       sodipodi:cy="3589.4629"
       sodipodi:rx="217.64706"
       sodipodi:ry="144.11765"
       d="m -532.35294,3589.4629 a 217.64706,144.11765 0 1 1 -0.18779,-5.9855"
       transform="matrix(1,0,0,1.5099965,1469.6669,-5194.4195)"
       sodipodi:start="0"
       sodipodi:end="6.2416411"
       sodipodi:open="true"
       inkscape:export-filename="/home/hglanzer/ownCloud/Diplomarbeit/knxSec/Praesentation/graphImports/combineCritUncritical2.svg.png"
       inkscape:export-xdpi="90"
       inkscape:export-ydpi="90" />
    <path
       transform="matrix(1,0,0,1.5099965,1131.3139,-5194.2422)"
       sodipodi:type="arc"
       style="opacity:0.80686693;fill:#24ea00;fill-opacity:0.85840676;stroke:none;display:inline"
       id="path6023-6"
       sodipodi:cx="-750"
       sodipodi:cy="3589.4629"
       sodipodi:rx="217.64706"
       sodipodi:ry="144.11765"
       d="m -532.35294,3589.4629 a 217.64706,144.11765 0 1 1 -0.18779,-5.9855"
       sodipodi:start="0"
       sodipodi:end="6.2416411"
       sodipodi:open="true"
       inkscape:export-filename="/home/hglanzer/ownCloud/Diplomarbeit/knxSec/Praesentation/graphImports/combineCritUncritical2.svg.png"
       inkscape:export-xdpi="90"
       inkscape:export-ydpi="90" />
    <g
       style="display:inline"
       id="g8873"
       transform="matrix(0.37699212,0,0,0.35965621,356.81659,530.36579)"
       inkscape:export-filename="/home/hglanzer/ownCloud/Diplomarbeit/knxSec/Praesentation/graphImports/combineCritUncritical2.svg.png"
       inkscape:export-xdpi="90"
       inkscape:export-ydpi="90">
      <g
         id="g8833">
        <path
           id="path8835"
           d="m 427.695,266.539 c -1.674,-2.137 -10.978,-12.967 -29.608,-20.072 -7.6,-2.353 -26.017,-4.704 -45.496,-8.589 l -29.357,-7.366 c -9.773,-3.174 -18.396,-7.029 -24.319,-11.813 5.585,-5.728 10.696,-12.536 15.281,-20.392 14.741,-25.263 19.994,-54.778 19.994,-73.975 0,-0.273 -0.143,-28.449 -0.606,-32.165 -0.34,-2.714 -0.826,-5.382 -1.435,-8.001 12.738,-0.199 23.007,-10.569 23.007,-23.355 0,-12.91 -10.464,-23.375 -23.375,-23.375 h -7.382 C 313.675,15.282 290.982,0 264.718,0 h -33.206 c -26.264,0 -48.958,15.282 -59.68,37.436 h -7.382 c -12.91,0 -23.374,10.465 -23.374,23.375 0,12.792 10.276,23.167 23.023,23.356 -0.42,1.799 -0.797,3.608 -1.088,5.439 -0.761,4.772 -0.97,34.439 -0.97,34.727 0,19.196 5.253,48.711 19.993,73.975 4.585,7.856 9.696,14.664 15.281,20.392 -5.925,4.784 -14.546,8.638 -24.319,11.813 l -29.357,7.366 c -19.482,3.886 -37.897,6.237 -45.496,8.589 -18.633,7.105 -27.936,17.935 -29.608,20.072 -34.264,50.866 -38.145,164.991 -38.176,166.126 0.305,15.188 4.818,20.376 6.375,21.015 76.27,33.934 166.047,42.549 210.088,42.549 0.418,0 0.867,-0.006 1.293,-0.009 0.426,0.003 0.875,0.009 1.293,0.009 44.041,0 133.818,-8.615 210.088,-42.549 1.557,-0.639 6.069,-5.827 6.375,-21.015 -0.031,-1.136 -3.913,-115.261 -38.176,-166.127 z M 209.508,88.209 c -14.05,0 -26.634,4.948 -35.158,12.76 0.126,-4.659 0.277,-8.428 0.443,-9.489 0.393,-2.481 0.943,-4.91 1.61,-7.296 h 143.451 c 0.849,3.071 1.487,6.226 1.892,9.456 0.093,0.816 0.178,3.709 0.252,7.437 -8.524,-7.874 -21.16,-12.867 -35.275,-12.867 h -77.214 v -10e-4 z m 27.863,36.868 c 0,7.578 -19.815,20.632 -40.098,20.632 -14.119,0 -20.416,-6.364 -20.416,-20.632 0,-11.184 13.855,-20.631 30.258,-20.631 16.399,0 30.256,9.447 30.256,20.631 z m 51.745,-20.631 c 16.401,0 30.257,9.447 30.257,20.631 0,14.268 -6.297,20.632 -20.416,20.632 -20.283,0 -40.098,-13.054 -40.098,-20.632 0,-11.184 13.857,-20.631 30.257,-20.631 z m -96.778,87.85 c -6.71,-11.5 -11.274,-23.957 -14.178,-35.747 5.517,3.422 12.632,5.396 21.508,5.396 17.657,0 37.131,-9.956 48.939,-9.956 11.808,0 30.297,9.956 47.955,9.956 8.876,0 15.991,-1.973 21.508,-5.396 -2.903,11.79 -7.468,24.248 -14.178,35.747 -9.744,16.697 -27.33,36.602 -55.777,36.602 -28.447,0 -46.033,-19.905 -55.777,-36.602 z"
           inkscape:connector-curvature="0" />
      </g>
      <g
         id="g8837" />
      <g
         id="g8839" />
      <g
         id="g8841" />
      <g
         id="g8843" />
      <g
         id="g8845" />
      <g
         id="g8847" />
      <g
         id="g8849" />
      <g
         id="g8851" />
      <g
         id="g8853" />
      <g
         id="g8855" />
      <g
         id="g8857" />
      <g
         id="g8859" />
      <g
         id="g8861" />
      <g
         id="g8863" />
      <g
         id="g8865" />
    </g>
    <path
       inkscape:connector-curvature="0"
       style="fill:#000000;fill-opacity:1;display:inline"
       d="m 677.47937,476.06298 -19.9874,-1.377 -94.2517,45.0152 -25.3159,-1.7574 94.292,-45.0341 -19.7085,-1.412 98.1588,-29.0943 -33.1866,33.659 z"
       id="rect4389-4"
       inkscape:export-filename="/home/hglanzer/ownCloud/Diplomarbeit/knxSec/Praesentation/graphImports/combineCritUncritical2.svg.png"
       inkscape:export-xdpi="90"
       inkscape:export-ydpi="90" />
    <path
       inkscape:connector-curvature="0"
       style="fill:#000000;fill-opacity:1;display:inline"
       d="m 429.15066,476.8885 19.9874,-1.377 94.2517,45.0152 25.3159,-1.7574 -94.292,-45.0341 19.7085,-1.412 -98.1588,-29.0943 33.1866,33.659 z"
       id="rect4389-4-4"
       inkscape:export-filename="/home/hglanzer/ownCloud/Diplomarbeit/knxSec/Praesentation/graphImports/combineCritUncritical2.svg.png"
       inkscape:export-xdpi="90"
       inkscape:export-ydpi="90" />
    <g
       id="g7463"
       transform="matrix(0.23355591,0,0,-0.24324303,547.72571,716.36345)"
       inkscape:export-filename="/home/hglanzer/ownCloud/Diplomarbeit/knxSec/Praesentation/graphImports/combineCritUncritical2.svg.png"
       inkscape:export-xdpi="90"
       inkscape:export-ydpi="90">
      <title
         id="title7465">Layer 1</title>
      <path
         id="path4828"
         d="M 516.06854,31.096121 213.41705,324.89444 376.55542,330.32248 117.71051,575.4397 227.34552,577.38831 45.682861,768.61993 484.63147,535.35846 321.23553,537.00067 651.98218,285.34546 473.07495,284.9256 767.02563,23.25316 516.06854,31.09612 z"
         inkscape:connector-curvature="0"
         style="fill:#000000;fill-rule:evenodd;stroke:#ff0000;stroke-width:0" />
    </g>
  </g>
</svg>
